<svg width="900" height="280" viewBox="0 0 900 280" xmlns="http://www.w3.org/2000/svg">
  <rect width="900" height="280" fill="#FFFFFF"/>

  <text x="60" y="56" font-family="SFMono-Regular, Menlo, Consolas, monospace" font-size="13" letter-spacing="3" fill="#57606A">PORTFOLIO / NAGA CITY, PH</text>

  <text x="58" y="150" font-family="Helvetica, Arial, sans-serif" font-weight="800" font-size="76" letter-spacing="2" fill="#1B1F23">KYLIE</text>
  <text x="60" y="182" font-family="Helvetica, Arial, sans-serif" font-weight="600" font-size="24" letter-spacing="12" fill="#2C6E9E">CLEMENTE</text>

  <text x="60" y="222" font-family="SFMono-Regular, Menlo, Consolas, monospace" font-size="14" fill="#57606A">junior web developer <tspan fill="#c8d0d8">·</tspan> frontend / ui-ux / automation</text>

  <g>
    <rect x="620" y="125" width="8" height="30" rx="2" fill="#cfe3f0"/>
    <rect x="636" y="112" width="8" height="56" rx="2" fill="#2C6E9E"/>
    <rect x="652" y="97"  width="8" height="86" rx="2" fill="#cfe3f0"/>
    <rect x="668" y="80"  width="8" height="120" rx="2" fill="#2C6E9E"/>
    <rect x="684" y="92"  width="8" height="96"  rx="2" fill="#cfe3f0"/>
    <rect x="700" y="110" width="8" height="60"  rx="2" fill="#2C6E9E"/>
    <rect x="716" y="120" width="8" height="40"  rx="2" fill="#cfe3f0"/>
    <rect x="732" y="105" width="8" height="70"  rx="2" fill="#2C6E9E"/>
    <rect x="748" y="82"  width="8" height="110" rx="2" fill="#cfe3f0"/>
    <rect x="764" y="100" width="8" height="80"  rx="2" fill="#2C6E9E"/>
    <rect x="780" y="118" width="8" height="45"  rx="2" fill="#cfe3f0"/>
    <rect x="796" y="90"  width="8" height="100" rx="2" fill="#2C6E9E"/>
    <rect x="812" y="108" width="8" height="70"  rx="2" fill="#cfe3f0"/>
    <rect x="828" y="122" width="8" height="40"  rx="2" fill="#2C6E9E"/>
  </g>
</svg>
